<?xml version="1.0" standalone="no"?>
<svg version="1.0" xmlns="http://www.w3.org/2000/svg"
     width="682.000000pt" height="156.000000pt" viewBox="0 0 682.000000 156.000000"
     preserveAspectRatio="xMidYMid meet">
    <g transform="translate(0.000000,156.000000) scale(0.100000,-0.100000)"
       fill="#000000" stroke="none">
        <path d="M332 1549 c-149 -19 -254 -102 -307 -244 -18 -46 -20 -89 -23 -489
                -2 -287 1 -463 8 -509 31 -200 143 -302 330 -301 89 0 167 29 205 78 l25 31 0
                -47 0 -48 120 0 121 0 -3 623 -3 622 -26 62 c-14 33 -37 74 -50 90 -85 104
                -233 153 -397 132z m155 -249 c69 -41 68 -36 68 -520 0 -421 -1 -436 -21 -470
                -32 -56 -80 -83 -137 -77 -59 5 -95 30 -122 83 -19 37 -20 59 -20 464 0 422 0
                425 23 467 12 23 34 49 50 57 39 22 120 20 159 -4z"/>
        <path d="M1273 1549 c-136 -17 -241 -101 -285 -227 l-23 -67 0 -615 0 -615
                122 -3 122 -3 3 598 c3 533 5 602 20 635 21 47 61 73 114 73 52 0 85 -18 110
                -58 18 -30 19 -63 24 -637 l5 -605 123 -3 122 -3 0 615 c0 588 -1 617 -20 679
                -54 174 -221 265 -437 236z"/>
        <path d="M2185 1549 c-87 -13 -178 -60 -220 -116 -60 -79 -79 -142 -79 -273 0
                -200 34 -253 320 -481 188 -150 204 -172 204 -271 0 -111 -56 -178 -149 -178
                -100 0 -150 68 -151 203 l0 77 -130 0 -130 0 0 -57 c0 -204 79 -355 217 -414
                176 -75 404 -32 510 98 106 131 113 373 14 516 -35 51 -84 96 -280 254 -74 59
                -144 121 -155 136 -30 41 -35 150 -8 210 51 115 196 96 231 -30 6 -21 11 -71
                11 -110 l0 -73 126 0 126 0 -4 118 c-4 90 -10 131 -28 176 -26 67 -94 148
                -150 176 -73 37 -180 53 -275 39z"/>
        <path d="M4564 1550 c-180 -26 -287 -122 -324 -290 -8 -39 -11 -185 -8 -515 3
                -453 3 -461 26 -517 65 -160 249 -251 448 -220 99 16 152 40 214 98 81 76 120
                184 120 336 l0 68 -124 0 -123 0 -5 -83 c-7 -127 -50 -186 -145 -194 -102 -9
                -158 57 -158 187 0 62 4 80 23 107 13 18 98 86 190 151 277 197 334 276 336
                462 2 162 -49 275 -158 348 -79 52 -204 78 -312 62z m154 -250 c77 -47 96
                -193 34 -269 -16 -20 -84 -75 -151 -123 l-121 -88 0 178 c0 200 8 242 55 289
                30 30 39 33 92 33 41 0 68 -6 91 -20z"/>
        <path d="M5494 1550 c-180 -26 -287 -122 -324 -290 -8 -40 -11 -187 -8 -525 3
                -468 3 -470 27 -529 27 -67 88 -139 141 -166 40 -20 126 -40 174 -40 57 0 136
                30 176 66 l39 35 3 -38 3 -38 120 0 120 0 3 565 c3 598 -1 666 -42 756 -69
                151 -240 232 -432 204z m147 -247 c16 -10 38 -36 49 -58 19 -39 20 -63 20
                -471 0 -426 0 -429 -23 -469 -56 -99 -199 -99 -251 1 -20 38 -21 55 -21 474 0
                484 -1 479 68 520 41 25 118 26 158 3z"/>
        <path d="M6505 1550 c-206 -22 -325 -123 -370 -312 -12 -52 -15 -166 -15 -641
                l0 -578 123 3 122 3 5 565 c4 427 8 572 18 594 40 90 114 136 220 136 l62 0 0
                114 0 114 -31 6 c-34 7 -33 7 -134 -4z"/>
        <path d="M2782 913 l4 -618 23 -65 c18 -47 39 -79 80 -121 76 -77 142 -102
                271 -103 84 -1 101 2 150 26 30 15 70 43 89 62 l33 34 34 -38 c55 -61 121 -85
                234 -84 130 1 195 26 272 104 45 46 61 72 80 126 23 69 23 72 26 682 l3 612
                -131 0 -130 0 0 -595 c0 -657 1 -646 -62 -685 -42 -25 -94 -25 -136 0 -63 39
                -62 28 -62 685 l0 595 -130 0 -130 0 0 -592 c0 -561 -1 -595 -19 -635 -25 -53
                -68 -77 -128 -70 -50 5 -79 27 -102 77 -14 31 -16 108 -19 628 l-3 592 -125 0
                -125 0 3 -617z"/>
        <path d="M6602 283 c-52 -25 -77 -69 -77 -133 0 -70 28 -112 90 -135 57 -22
                104 -14 150 26 127 112 -11 317 -163 242z"/>
    </g>
</svg>
